<svg width="38" height="48" viewBox="0 0 38 48" fill="none" xmlns="http://www.w3.org/2000/svg">
<path d="M28.657 0.295895C26.4312 0.552926 23.2812 2.51621 21.7172 4.61621C20.8148 5.81933 20.2843 6.96777 19.825 8.69589L19.5953 9.55996L19.6062 10.4787C19.6172 10.9818 19.6445 11.4521 19.6718 11.5287C19.7429 11.7092 19.8797 11.7365 20.8422 11.742C21.6406 11.7475 21.6898 11.742 22.3734 11.5396C24.2 11.0092 25.5398 10.2107 26.4914 9.07871C26.7211 8.7998 27.0656 8.42793 27.2461 8.24199C27.8476 7.65136 28.6187 6.33886 29.0453 5.20136C29.4718 4.05839 29.6632 2.99746 29.7179 1.48808L29.7507 0.520113L29.6086 0.377926C29.45 0.219332 29.3625 0.213863 28.657 0.295895Z" fill="#717171"/>
<path d="M26.9347 12.0112C25.8813 12.0653 23.0458 12.8655 21.0083 13.6766C19.7741 14.1686 19.7741 14.1686 19.5294 14.2119C19.1038 14.2822 18.0611 13.974 16.2683 13.2386C15.316 12.8547 14.3372 12.5627 12.8902 12.2275C12.2837 12.0923 11.2782 12.0761 10.842 12.2005C10.6665 12.2491 10.1132 12.3627 9.61312 12.4492C8.53851 12.6439 7.93204 12.8331 7.12342 13.2386C4.6816 14.4498 3.01647 16.1908 1.69714 18.9159C1.11196 20.1162 0.681047 21.2895 0.361854 22.5385C-0.111615 24.3931 -0.122255 27.9509 0.340574 30.1083C0.393773 30.3732 0.441652 30.6868 0.441652 30.8112C0.441652 31.0707 0.489531 31.2653 0.936401 33.055C1.35135 34.7096 1.30879 34.5744 2.10145 36.5966C3.21331 39.4352 3.56442 40.0624 5.83601 43.2471C6.76699 44.5502 7.24046 45.1449 7.92672 45.8532C8.64491 46.5994 9.22477 47.032 10.044 47.4429C10.9697 47.9025 11.374 48.0052 12.2252 47.9998C13.3158 47.9998 14.1935 47.7727 15.864 47.059C16.9173 46.6102 16.9865 46.5886 18.9016 46.1885C19.4762 46.0641 20.0082 46.0749 20.8168 46.2101C21.0934 46.2534 21.5084 46.3182 21.7318 46.3507C22.184 46.4156 22.6415 46.567 23.8225 47.0482C25.2482 47.6321 26.2537 47.8917 27.307 47.9565C28.8392 48.0539 30.3181 47.3618 31.8981 45.8208C33.51 44.2366 35.0155 42.0684 36.537 39.1432C36.9467 38.3538 37.601 36.7372 37.7127 36.2505C37.7606 36.0559 37.8404 35.8126 37.8989 35.7152C37.9521 35.6179 38 35.4827 38 35.4233C38 35.2286 37.6116 34.9204 36.9254 34.569C35.6327 33.8931 34.3612 32.736 33.5047 31.433C32.8929 30.4976 32.2758 29.0972 32.1215 28.2699C31.8609 26.9073 31.7864 25.415 31.9353 24.3769C31.9726 24.1066 32.1056 23.5388 32.2333 23.1063C32.7812 21.2301 33.1589 20.4785 34.0154 19.5485C34.2761 19.2728 34.4889 19.0186 34.4889 18.997C34.4889 18.9051 35.7922 17.7967 36.1114 17.6182C36.287 17.5155 36.5104 17.3587 36.6062 17.2614C36.8988 16.9694 36.8562 16.8559 36.1221 15.9799C35.1379 14.8066 33.8984 13.8442 32.4407 13.1251C31.531 12.6763 30.9033 12.4546 30.0255 12.2708C29.1264 12.0761 27.7858 11.9626 26.9347 12.0112Z" fill="#717171"/>
</svg>
